<?xml version="1.0" encoding="utf-8"?>
<!-- Svg Vector Icons : http://www.onlinewebfonts.com/icon -->
<!DOCTYPE svg PUBLIC "-//W3C//DTD SVG 1.1//EN" "http://www.w3.org/Graphics/SVG/1.1/DTD/svg11.dtd">
<svg version="1.1" xmlns="http://www.w3.org/2000/svg" xmlns:xlink="http://www.w3.org/1999/xlink" x="0px" y="0px" viewBox="0 0 1000 1000" enable-background="new 0 0 1000 1000" xml:space="preserve">
<metadata> Svg Vector Icons : http://www.onlinewebfonts.com/icon </metadata>
<g><path d="M498.6,604.2c-8.6,0-20.1-5.7-25.9-14.4c-17.2-25.9-178.2-261.5-178.2-362.1c0-112.1,92-204,204-204c112.1,0,204,92,204,204c0,100.6-160.9,336.2-178.2,362.1C518.7,598.4,507.2,604.2,498.6,604.2z M498.6,86.9c-77.6,0-140.8,63.2-140.8,140.8c0,54.6,77.6,192.6,140.8,290.3c63.2-97.7,140.8-235.7,140.8-290.3C639.4,150.1,576.2,86.9,498.6,86.9z"/><path d="M38.7,974.9c-5.7,0-11.5-2.9-14.4-2.9c-8.6-5.7-14.4-17.2-14.4-25.9V368.5c0-11.5,5.7-20.1,17.2-25.9l172.4-86.2c14.4-5.7,31.6,0,37.4,11.5c5.7,14.4,0,31.6-11.5,37.4L67.5,388.6v511.6l189.7-152.3c8.6-2.9,17.2-2.9,25.9,0l218.4,166.7L717,747.9c8.6-2.9,17.2-2.9,25.9,0l186.8,152.3V388.6L774.5,311c-14.4-5.7-20.1-23-11.5-37.4c5.7-14.4,23-20.1,37.4-11.5l172.4,86.2c8.6,5.7,17.2,14.4,17.2,25.9v571.9c0,8.6-5.7,20.1-14.4,25.9c-8.6,5.7-20.1,5.7-28.7,0L728.5,805.4L512.9,972c-8.6,2.9-17.2,2.9-25.9,0L268.7,805.4L50.2,972C47.4,974.9,44.5,974.9,38.7,974.9z"/></g>
</svg>