<?xml version="1.0" standalone="no"?>
<!DOCTYPE svg PUBLIC "-//W3C//DTD SVG 20010904//EN"
 "http://www.w3.org/TR/2001/REC-SVG-20010904/DTD/svg10.dtd">
<svg version="1.0" xmlns="http://www.w3.org/2000/svg"
 width="294.000000pt" height="278.000000pt" viewBox="0 0 294.000000 278.000000"
 preserveAspectRatio="xMidYMid meet">
<metadata>
Created by potrace 1.15, written by Peter Selinger 2001-2017
</metadata>
<g transform="translate(0.000000,278.000000) scale(0.100000,-0.100000)"
fill="#000000" stroke="none">
<path d="M1559 2731 l-29 -29 0 -182 c0 -204 8 -237 62 -270 44 -27 97 -26
139 3 53 35 61 74 57 280 l-3 179 -28 24 c-24 20 -39 24 -98 24 -65 0 -73 -2
-100 -29z"/>
<path d="M1185 2665 c-24 -24 -25 -28 -25 -183 0 -149 1 -161 23 -193 39 -58
106 -76 167 -44 53 27 60 56 60 238 0 158 -1 164 -23 185 -20 19 -35 22 -101
22 -68 0 -80 -3 -101 -25z"/>
<path d="M1932 2667 c-21 -22 -22 -33 -22 -186 0 -179 7 -209 60 -236 61 -32
128 -14 167 44 22 32 23 44 23 193 0 155 -1 159 -25 183 -21 22 -33 25 -103
25 -69 0 -81 -3 -100 -23z"/>
<path d="M841 2620 c-45 -19 -50 -37 -51 -174 0 -112 3 -133 20 -161 40 -65
137 -73 194 -16 l31 31 3 134 c3 129 3 134 -21 162 -21 24 -32 28 -88 31 -35
1 -75 -2 -88 -7z"/>
<path d="M569 2497 c-126 -43 -235 -144 -285 -262 -8 -20 -69 -273 -135 -563
-110 -480 -121 -534 -117 -603 7 -130 76 -232 195 -291 58 -28 75 -32 147 -32
142 0 234 59 334 214 l54 84 29 -63 c103 -227 320 -392 574 -435 l80 -13 -60
-8 c-37 -5 -93 -3 -145 4 -47 6 -93 13 -103 14 -14 1 -22 -8 -30 -33 -12 -34
-14 -35 -70 -40 -36 -3 -62 -11 -67 -20 -5 -8 -10 -77 -10 -153 0 -122 -2
-138 -17 -144 -52 -18 -68 -67 -37 -111 l15 -22 554 0 554 0 15 22 c31 44 15
93 -36 111 -16 6 -18 22 -18 146 0 164 -4 171 -81 171 -45 0 -51 3 -60 28 -6
15 -14 48 -18 75 l-8 47 51 31 c119 74 215 179 277 304 17 36 35 65 38 65 3 0
26 -29 49 -64 57 -83 111 -137 169 -169 226 -122 496 28 511 283 3 68 -7 122
-117 600 -128 553 -144 603 -216 687 -52 61 -126 112 -203 139 -100 35 -102
35 -102 -36 0 -44 4 -60 14 -60 7 0 45 -16 84 -36 74 -36 128 -88 163 -157 25
-48 259 -1058 259 -1118 0 -29 -9 -64 -26 -98 -64 -127 -217 -165 -333 -81
-67 49 -232 303 -251 388 -8 36 -51 118 -133 255 -66 111 -125 205 -131 209
-6 4 -137 8 -292 8 -320 0 -314 2 -314 -81 1 -92 61 -168 150 -188 25 -6 95
-11 156 -11 l110 0 25 -82 c13 -46 24 -87 24 -91 0 -5 -16 -15 -37 -21 -136
-48 -249 -180 -265 -314 -8 -72 -23 -55 -23 27 0 116 41 219 123 308 l40 43
-355 0 c-389 0 -429 -5 -485 -58 -16 -15 -69 -94 -118 -177 -96 -163 -131
-207 -185 -235 -105 -54 -233 -18 -296 82 -49 77 -46 110 51 533 47 209 100
440 116 513 17 74 39 153 49 178 37 85 132 167 228 195 l42 12 0 59 c0 68 -1
69 -101 35z"/>
<path d="M830 2102 c-40 -12 -50 -34 -50 -104 l0 -68 -65 0 c-57 0 -69 -3 -90
-25 -31 -30 -32 -65 -2 -93 19 -18 35 -22 90 -22 l67 0 0 -68 c0 -89 26 -117
91 -99 33 9 49 45 49 112 l0 55 65 0 c74 0 105 20 105 68 0 48 -36 72 -108 72
l-62 0 0 55 c0 30 -5 65 -11 79 -12 26 -54 46 -79 38z"/>
<path d="M1979 2031 c-34 -34 -37 -68 -9 -103 24 -31 66 -41 101 -22 29 14 39
33 39 69 0 37 -10 55 -41 70 -40 21 -57 19 -90 -14z"/>
<path d="M2215 2037 c-69 -59 -10 -165 75 -136 56 20 74 95 31 133 -32 29 -75
30 -106 3z"/>
<path d="M2209 1801 c-31 -25 -32 -83 -1 -113 63 -63 169 12 128 91 -24 46
-85 56 -127 22z"/>
</g>
</svg>
